<svg xmlns="http://www.w3.org/2000/svg" width="1180" height="650" viewBox="0 0 1180 650"><rect width="1180" height="650" rx="30" fill="#f3f7f5"/><text x="46" y="58" font-family="Arial" font-size="26" font-weight="800" fill="#0e3026">대시보드 읽는 법</text><rect x="46" y="94" width="1088" height="150" rx="24" fill="#112820"/><text x="78" y="132" font-family="Arial" font-size="18" font-weight="800" fill="#d7efe3">일일 기사 처리 현황</text><g font-family="Arial" font-size="12"><rect x="78" y="158" width="150" height="50" rx="12" fill="#203d33"/><text x="98" y="188" fill="#fff">공통분석 28/31</text><rect x="246" y="158" width="150" height="50" rx="12" fill="#203d33"/><text x="266" y="188" fill="#fff">임베딩 24/31</text><rect x="414" y="158" width="150" height="50" rx="12" fill="#203d33"/><text x="434" y="188" fill="#fff">케이스판정 18/31</text><rect x="582" y="158" width="150" height="50" rx="12" fill="#203d33"/><text x="602" y="188" fill="#fff">발송 7건</text><rect x="750" y="158" width="330" height="50" rx="12" fill="#203d33"/><text x="770" y="188" fill="#fff">오류 0건 (누적: 3건)</text></g><rect x="46" y="286" width="700" height="288" rx="24" fill="#fff" stroke="#d5e0da"/><text x="78" y="326" font-family="Arial" font-size="18" font-weight="800" fill="#0e3026">기사 분석 기록</text><rect x="78" y="354" width="636" height="78" rx="16" fill="#f8fbf9" stroke="#d5e0da"/><text x="104" y="384" font-family="Arial" font-size="14" font-weight="800" fill="#0e3026">예천군 하천계곡 불법점용 510건 기사</text><text x="104" y="410" font-family="Arial" font-size="12" fill="#52635b">유사도 82.4% · 보도자료 2건 · 발송(3건)</text><rect x="78" y="454" width="636" height="78" rx="16" fill="#f8fbf9" stroke="#d5e0da"/><text x="104" y="484" font-family="Arial" font-size="14" font-weight="800" fill="#0e3026">유사 기사 묶음 보기(4건)</text><text x="104" y="510" font-family="Arial" font-size="12" fill="#52635b">키워드 임시 기준 → 임베딩 완료 후 의미 유사도 기준</text><rect x="786" y="286" width="348" height="288" rx="24" fill="#fff" stroke="#d5e0da"/><text x="818" y="326" font-family="Arial" font-size="18" font-weight="800" fill="#0e3026">상태 확인 포인트</text><text x="818" y="366" font-family="Arial" font-size="13" fill="#52635b">+ 케이스: 후보 제외/발송 제외 사유</text><text x="818" y="400" font-family="Arial" font-size="13" fill="#52635b">재분석: 기사 단위로 최신 결과 덮어쓰기</text><text x="818" y="434" font-family="Arial" font-size="13" fill="#52635b">발송 건수: 실제 수신자 메시지 수</text><text x="818" y="468" font-family="Arial" font-size="13" fill="#52635b">모델 표기: 플랫폼과 단순 모델명만 표시</text></svg>