<svg xmlns="http://www.w3.org/2000/svg" width="1180" height="520" viewBox="0 0 1180 520"><rect width="1180" height="520" rx="28" fill="#f4f8f5"/><text x="42" y="58" font-family="Arial, sans-serif" font-size="26" font-weight="800" fill="#12352a">AI 언론동향 비서 업무 흐름</text><g font-family="Arial, sans-serif" font-size="15" font-weight="700"><rect x="42" y="105" width="155" height="78" rx="18" fill="#fff" stroke="#cddbd3"/><text x="72" y="137" fill="#0a2e25">기관 설정</text><text x="62" y="163" fill="#66766e" font-size="12">검색어·RSS</text><rect x="235" y="105" width="155" height="78" rx="18" fill="#fff" stroke="#cddbd3"/><text x="264" y="137" fill="#0a2e25">기사 수집</text><text x="258" y="163" fill="#66766e" font-size="12">NAVER/RSS</text><rect x="428" y="105" width="155" height="78" rx="18" fill="#fff" stroke="#cddbd3"/><text x="458" y="137" fill="#0a2e25">공통분석</text><text x="454" y="163" fill="#66766e" font-size="12">요약·태그·어조</text><rect x="621" y="105" width="155" height="78" rx="18" fill="#fff" stroke="#cddbd3"/><text x="661" y="137" fill="#0a2e25">임베딩</text><text x="646" y="163" fill="#66766e" font-size="12">의미 벡터</text><rect x="814" y="105" width="155" height="78" rx="18" fill="#fff" stroke="#cddbd3"/><text x="836" y="137" fill="#0a2e25">케이스 판정</text><text x="840" y="163" fill="#66766e" font-size="12">배치 LLM</text><rect x="1007" y="105" width="130" height="78" rx="18" fill="#12352a"/><text x="1040" y="137" fill="#fff">발송</text><text x="1034" y="163" fill="#cfe7db" font-size="12">Kakao</text></g><g stroke="#82a091" stroke-width="4" fill="none" marker-end="url(#a)"><path d="M197 144h38"/><path d="M390 144h38"/><path d="M583 144h38"/><path d="M776 144h38"/><path d="M969 144h38"/></g><defs><marker id="a" viewBox="0 0 10 10" refX="9" refY="5" markerWidth="7" markerHeight="7" orient="auto-start-reverse"><path d="M0 0l10 5-10 5z" fill="#82a091"/></marker></defs><rect x="72" y="255" width="312" height="178" rx="22" fill="#fff" stroke="#cddbd3"/><text x="102" y="292" font-family="Arial" font-size="18" font-weight="800" fill="#12352a">구독자</text><text x="102" y="326" font-family="Arial" font-size="14" fill="#52635b">카카오 메시지 동의 후 케이스 구독 요청</text><text x="102" y="356" font-family="Arial" font-size="14" fill="#52635b">관리자 승인 시 실제 수신 대상 등록</text><rect x="434" y="255" width="312" height="178" rx="22" fill="#fff" stroke="#cddbd3"/><text x="464" y="292" font-family="Arial" font-size="18" font-weight="800" fill="#12352a">관리자</text><text x="464" y="326" font-family="Arial" font-size="14" fill="#52635b">회원·케이스·모델·공지 설정</text><text x="464" y="356" font-family="Arial" font-size="14" fill="#52635b">재분석과 구독 해제 권한 관리</text><rect x="796" y="255" width="312" height="178" rx="22" fill="#fff" stroke="#cddbd3"/><text x="826" y="292" font-family="Arial" font-size="18" font-weight="800" fill="#12352a">클린 AI 게시판</text><text x="826" y="326" font-family="Arial" font-size="14" fill="#52635b">케이스 신청 글을 로컬 LLM이 검사</text><text x="826" y="356" font-family="Arial" font-size="14" fill="#52635b">문제 글은 블라인드, 관리자는 예외 허용</text></svg>